<?xml version="1.0" encoding="utf-8"?>
<!-- Generator: Adobe Illustrator 18.1.1, SVG Export Plug-In . SVG Version: 6.00 Build 0)  -->
<svg version="1.1" id="Layer_1" xmlns="http://www.w3.org/2000/svg" xmlns:xlink="http://www.w3.org/1999/xlink" x="0px" y="0px"
	 viewBox="0 0 38.1 62.9" enable-background="new 0 0 38.1 62.9" xml:space="preserve">
<g>
	<g>
		<path fill="#E39B34" d="M19.1,62.9L0,20.3l0-0.8c0-0.5,0.2-4.9,2.5-9.5C4.8,5.4,9.7,0,19.5,0c5.7,0,10.3,1.7,13.6,5.2
			c5.2,5.5,5,13.2,5,13.5l0,0.7L19.1,62.9z M7.2,18.9L19,45.2L31,17.8c-0.1-1.4-0.5-5.2-3-7.8c-1.9-1.9-4.7-2.9-8.4-2.9
			c-5.1,0-8.6,2-10.7,6C7.7,15.4,7.3,17.8,7.2,18.9z"/>
	</g>
	<g>
		<path fill="#E39B34" d="M19.8,25.8c-4,0-7.3-3.3-7.3-7.3s3.3-7.3,7.3-7.3s7.3,3.3,7.3,7.3S23.8,25.8,19.8,25.8z M19.8,18.4
			c-0.1,0-0.2,0.1-0.2,0.2c0,0.2,0.3,0.2,0.3,0C20,18.5,19.9,18.4,19.8,18.4z"/>
	</g>
</g>
</svg>
