<?xml version="1.0" encoding="utf-8"?>
<!-- Generator: Adobe Illustrator 18.1.1, SVG Export Plug-In . SVG Version: 6.00 Build 0)  -->
<svg version="1.1" id="Layer_1" xmlns="http://www.w3.org/2000/svg" xmlns:xlink="http://www.w3.org/1999/xlink" x="0px" y="0px"
	 viewBox="0 0 93.6 93.6" enable-background="new 0 0 93.6 93.6" xml:space="preserve">
<g>
	<g>
		<circle fill="#F39E1E" cx="46.8" cy="46.8" r="45.4"/>
		<path fill="#ABABAB" d="M46.8,93.6C21,93.6,0,72.6,0,46.8S21,0,46.8,0s46.8,21,46.8,46.8S72.6,93.6,46.8,93.6z M46.8,2.7
			C22.5,2.7,2.7,22.5,2.7,46.8s19.8,44.1,44.1,44.1c24.3,0,44.1-19.8,44.1-44.1S71.1,2.7,46.8,2.7z"/>
	</g>
	<g>
		<polygon fill="#FFFFFF" points="46.8,15.1 53.9,37 77,37 58.3,50.6 65.5,72.5 46.8,58.9 28.1,72.5 35.3,50.6 16.6,37 39.7,37 		
			"/>
	</g>
</g>
</svg>
