<?xml version="1.0" encoding="utf-8"?>
<!-- Generator: Adobe Illustrator 18.1.1, SVG Export Plug-In . SVG Version: 6.00 Build 0)  -->
<svg version="1.1" id="Layer_1" xmlns="http://www.w3.org/2000/svg" xmlns:xlink="http://www.w3.org/1999/xlink" x="0px" y="0px"
	 viewBox="0 0 92.5 92.5" enable-background="new 0 0 92.5 92.5" xml:space="preserve">
<g>
	<g>
		<circle fill="#EE2424" cx="46.2" cy="46.2" r="44.9"/>
		<path fill="#A8A7A8" d="M46.2,92.5C20.7,92.5,0,71.7,0,46.2S20.7,0,46.2,0s46.2,20.7,46.2,46.2S71.7,92.5,46.2,92.5z M46.2,2.7
			c-24,0-43.6,19.5-43.6,43.6s19.5,43.6,43.6,43.6s43.6-19.5,43.6-43.6S70.3,2.7,46.2,2.7z"/>
	</g>
	<g>
		<g>
			<g>
				<g>
					<path fill="#FFFFFF" d="M61.3,39.5l-2.9,16.2c-0.9,0-1.8,0-2.7,0c-4.1-0.1-8.3-0.8-11.5-2.3c-2.6-1.2-4.7-3.1-5.4-5.7
						c0.7-0.6,1.2-1.5,1.2-2.5c0-1.8-1.4-3.2-3.2-3.2c-1.8,0-3.2,1.4-3.2,3.2c0,1.6,1.2,2.9,2.7,3.2c1,3.4,3.5,5.8,6.8,7.3
						c3.6,1.7,8,2.4,12.5,2.5c0.8,0,1.6,0,2.3,0l-0.6,4H22.6l-3.9-22.7L61.3,39.5L61.3,39.5z M57,64.8l-0.3,2.4H23.2l-0.3-2.4H57
						L57,64.8z M56.4,69.5c-0.7,2.3-0.3,4.8-3.4,4.8H26.9c-3,0-2.7-2.5-3.4-4.8H56.4L56.4,69.5z"/>
				</g>
				<g>
					<path fill="#FFFFFF" d="M63.9,23.3c4.2-3.9,4.9-7,8.2-3.6l0.1,0.1l0,0l0.1,0.2l0,0l0.1,0.2l0,0l0.1,0.2
						c3.1,3.6-0.1,3.9-4.4,7.8l0,0L63.9,23.3L63.9,23.3L63.9,23.3z M60.1,26.5c-3.2,2.2-5.4,2.5-8,3.5c-2.3,0.8-4.9,2.1-8.8,5.1
						c-0.8,0.6-1.6,1.3-2.5,2h20.6c0.8-1.7,1.5-3.5,3.3-5.6c0.5-0.5,1-1.1,1.6-1.7l0,0L62,25.1l0,0C61.3,25.7,60.7,26.1,60.1,26.5
						L60.1,26.5z"/>
				</g>
			</g>
		</g>
	</g>
</g>
</svg>
