<?xml version="1.0" encoding="utf-8"?>
<!-- Generator: Adobe Illustrator 18.1.1, SVG Export Plug-In . SVG Version: 6.00 Build 0)  -->
<svg version="1.1" id="Layer_1" xmlns="http://www.w3.org/2000/svg" xmlns:xlink="http://www.w3.org/1999/xlink" x="0px" y="0px"
	 viewBox="0 0 36.9 32.8" enable-background="new 0 0 36.9 32.8" xml:space="preserve">
<g>
	<g>
		<path fill="#F2EFE9" d="M35.3,32.8H1.6C0.7,32.8,0,32,0,31.1V4.4c0-0.9,0.7-1.6,1.6-1.6h33.6c0.9,0,1.6,0.7,1.6,1.6v26.7
			C36.9,32,36.2,32.8,35.3,32.8L35.3,32.8z M3.3,29.5h30.3V6H3.3V29.5L3.3,29.5z"/>
	</g>
	<g>
		<g>
			<path fill="#F2EFE9" d="M28.9,8.7c-0.9,0-1.6-0.7-1.6-1.6V1.6C27.2,0.7,28,0,28.9,0c0.9,0,1.6,0.7,1.6,1.6v5.5
				C30.5,8,29.8,8.7,28.9,8.7L28.9,8.7z"/>
		</g>
		<g>
			<path fill="#F2EFE9" d="M8,8.7C7.1,8.7,6.4,8,6.4,7.1V1.6C6.4,0.7,7.1,0,8,0c0.9,0,1.6,0.7,1.6,1.6v5.5C9.6,8,8.9,8.7,8,8.7
				L8,8.7z"/>
		</g>
	</g>
	<g>
		<path fill="#F2EFE9" d="M35.1,14H1.8C1.3,14,1,13.7,1,13.2c0-0.5,0.4-0.8,0.8-0.8h33.3c0.5,0,0.8,0.4,0.8,0.8
			C35.9,13.7,35.5,14,35.1,14L35.1,14z"/>
	</g>
	<g>
		<path fill="#F2EFE9" d="M13,25.3h4.1c0.4,0,0.7,0.1,0.9,0.3c0.2,0.2,0.3,0.4,0.3,0.7c0,0.3-0.1,0.5-0.3,0.7
			c-0.2,0.2-0.4,0.3-0.8,0.3h-5.8c-0.4,0-0.7-0.1-0.9-0.3c-0.2-0.2-0.3-0.5-0.3-0.8c0-0.2,0.1-0.4,0.2-0.8c0.1-0.3,0.3-0.6,0.5-0.7
			c0.7-0.7,1.3-1.3,1.9-1.9c0.6-0.5,1-0.9,1.2-1c0.4-0.3,0.8-0.6,1.1-0.9c0.3-0.3,0.5-0.6,0.7-0.9c0.2-0.3,0.2-0.6,0.2-1
			c0-0.3-0.1-0.6-0.2-0.9c-0.2-0.3-0.4-0.5-0.7-0.6c-0.3-0.1-0.6-0.2-0.9-0.2c-0.7,0-1.2,0.3-1.6,0.9c-0.1,0.1-0.1,0.3-0.3,0.6
			c-0.1,0.4-0.3,0.6-0.4,0.8c-0.2,0.2-0.4,0.3-0.7,0.3c-0.3,0-0.5-0.1-0.7-0.3c-0.2-0.2-0.3-0.4-0.3-0.7c0-0.4,0.1-0.7,0.2-1.1
			c0.2-0.4,0.4-0.8,0.7-1.1c0.3-0.3,0.7-0.6,1.2-0.8c0.5-0.2,1.1-0.3,1.7-0.3c0.8,0,1.5,0.1,2.1,0.4c0.4,0.2,0.7,0.4,1,0.7
			c0.3,0.3,0.5,0.6,0.6,1c0.2,0.4,0.2,0.8,0.2,1.2c0,0.7-0.2,1.2-0.5,1.8c-0.3,0.5-0.7,1-1,1.3c-0.3,0.3-0.9,0.8-1.7,1.4
			c-0.8,0.6-1.3,1.1-1.6,1.5C13.3,24.9,13.1,25.1,13,25.3z"/>
		<path fill="#F2EFE9" d="M23.8,26.2v-1.5h-4c-0.5,0-0.9-0.1-1.1-0.3c-0.2-0.2-0.4-0.5-0.4-0.9c0-0.1,0-0.2,0.1-0.3
			c0-0.1,0.1-0.2,0.2-0.3c0.1-0.1,0.2-0.2,0.2-0.3c0.1-0.1,0.2-0.2,0.3-0.4l4.2-5.6c0.3-0.4,0.5-0.6,0.7-0.8
			c0.2-0.2,0.4-0.2,0.6-0.2c0.8,0,1.2,0.5,1.2,1.4v6.1h0.3c0.4,0,0.7,0.1,1,0.2c0.2,0.1,0.4,0.4,0.4,0.7c0,0.3-0.1,0.5-0.3,0.7
			c-0.2,0.1-0.5,0.2-0.9,0.2h-0.5v1.5c0,0.4-0.1,0.7-0.3,0.9c-0.2,0.2-0.4,0.3-0.7,0.3c-0.3,0-0.5-0.1-0.7-0.3
			C23.9,26.8,23.8,26.6,23.8,26.2z M20.5,22.9h3.4v-4.6L20.5,22.9z"/>
	</g>
</g>
</svg>
