<?xml version="1.0" encoding="utf-8"?>
<!-- Generator: Adobe Illustrator 18.1.1, SVG Export Plug-In . SVG Version: 6.00 Build 0)  -->
<svg version="1.1" id="Layer_1" xmlns="http://www.w3.org/2000/svg" xmlns:xlink="http://www.w3.org/1999/xlink" x="0px" y="0px"
	 viewBox="0 0 2208 2208" enable-background="new 0 0 2208 2208" xml:space="preserve">
<g id="checkbox_x5F_on_x5F_light">
	<g>
		<polygon fill="none" points="2208.2,2208.2 0,2208.2 0,0 2208.2,0 		"/>
	</g>
	<path fill="#FF9E16" d="M1748.1,276H460c-101.2,0-184,82.8-184,184v1288.1c0,101.2,82.8,184,184,184h1288.1
		c101.2,0,184-82.8,184-184V460C1932.1,358.8,1849.3,276,1748.1,276z M920.1,1564.1l-460-460l128.8-128.8l331.2,331.2l699.2-699.2
		l128.8,128.8L920.1,1564.1z"/>
	<polygon display="none" fill="none" points="0,0 2208.2,0 2208.2,2208.2 0,2208.2 	"/>
</g>
</svg>
