<?xml version="1.0" encoding="utf-8"?>
<!-- Generator: Adobe Illustrator 18.1.1, SVG Export Plug-In . SVG Version: 6.00 Build 0)  -->
<svg version="1.1" id="Layer_1" xmlns="http://www.w3.org/2000/svg" xmlns:xlink="http://www.w3.org/1999/xlink" x="0px" y="0px"
	 viewBox="0 0 38.2 38.2" enable-background="new 0 0 38.2 38.2" xml:space="preserve">
<g>
	<g>
		<path fill="#F2EFE9" d="M19.1,38.2C8.6,38.2,0,29.6,0,19.1C0,8.6,8.6,0,19.1,0c10.5,0,19.1,8.6,19.1,19.1
			C38.2,29.6,29.6,38.2,19.1,38.2L19.1,38.2z M19.1,3.3c-8.7,0-15.8,7.1-15.8,15.8s7.1,15.8,15.8,15.8s15.8-7.1,15.8-15.8
			S27.8,3.3,19.1,3.3L19.1,3.3z"/>
	</g>
	<g>
		<path fill="#F2EFE9" d="M19.1,20.7c-0.9,0-1.6-0.7-1.6-1.6V7.3c0-0.9,0.7-1.6,1.6-1.6c0.9,0,1.6,0.7,1.6,1.6v11.8
			C20.7,20,20,20.7,19.1,20.7L19.1,20.7z"/>
	</g>
	<g>
		<path fill="#F2EFE9" d="M19.1,4.3c-0.9,0-1.6-0.7-1.6-1.6V1.6c0-0.9,0.7-1.6,1.6-1.6c0.9,0,1.6,0.7,1.6,1.6v1.1
			C20.7,3.6,20,4.3,19.1,4.3L19.1,4.3z"/>
	</g>
	<g>
		<path fill="#F2EFE9" d="M19.1,38.2c-0.9,0-1.6-0.7-1.6-1.6v-1.1c0-0.9,0.7-1.6,1.6-1.6c0.9,0,1.6,0.7,1.6,1.6v1.1
			C20.7,37.5,20,38.2,19.1,38.2L19.1,38.2z"/>
	</g>
	<g>
		<path fill="#F2EFE9" d="M36.6,20.7h-1.1c-0.9,0-1.6-0.7-1.6-1.6c0-0.9,0.7-1.6,1.6-1.6h1.1c0.9,0,1.6,0.7,1.6,1.6
			C38.2,20,37.5,20.7,36.6,20.7L36.6,20.7z"/>
	</g>
	<g>
		<path fill="#F2EFE9" d="M2.7,20.7H1.6C0.7,20.7,0,20,0,19.1c0-0.9,0.7-1.6,1.6-1.6h1.1c0.9,0,1.6,0.7,1.6,1.6
			C4.3,20,3.6,20.7,2.7,20.7L2.7,20.7z"/>
	</g>
	<g>
		<g>
			<g>
				<path fill="#F2EFE9" d="M26.6,7c-0.1,0-0.3,0-0.4-0.1c-0.4-0.2-0.5-0.7-0.3-1.1L26.3,5c0.2-0.4,0.7-0.5,1.1-0.3
					c0.4,0.2,0.5,0.7,0.3,1.1l-0.5,0.8C27.1,6.9,26.8,7,26.6,7L26.6,7z"/>
			</g>
			<g>
				<path fill="#F2EFE9" d="M11.2,33.7c-0.1,0-0.3,0-0.4-0.1c-0.4-0.2-0.5-0.7-0.3-1.1l0.5-0.8c0.2-0.4,0.7-0.5,1.1-0.3
					c0.4,0.2,0.5,0.7,0.3,1.1l-0.5,0.8C11.7,33.5,11.5,33.7,11.2,33.7L11.2,33.7z"/>
			</g>
			<g>
				<path fill="#F2EFE9" d="M32.8,27.9c-0.1,0-0.3,0-0.4-0.1l-0.8-0.5c-0.4-0.2-0.5-0.7-0.3-1.1c0.2-0.4,0.7-0.5,1.1-0.3l0.8,0.5
					c0.4,0.2,0.5,0.7,0.3,1.1C33.4,27.7,33.1,27.9,32.8,27.9L32.8,27.9z"/>
			</g>
			<g>
				<path fill="#F2EFE9" d="M6.2,12.5c-0.1,0-0.3,0-0.4-0.1L5,11.9c-0.4-0.2-0.5-0.7-0.3-1.1c0.2-0.4,0.7-0.5,1.1-0.3l0.8,0.5
					c0.4,0.2,0.5,0.7,0.3,1.1C6.8,12.3,6.5,12.5,6.2,12.5L6.2,12.5z"/>
			</g>
		</g>
		<g>
			<g>
				<path fill="#F2EFE9" d="M11.7,7c-0.3,0-0.6-0.1-0.7-0.4l-0.5-0.8c-0.2-0.4-0.1-0.9,0.3-1.1c0.4-0.2,0.9-0.1,1.1,0.3l0.5,0.8
					c0.2,0.4,0.1,0.9-0.3,1.1C11.9,7,11.8,7,11.7,7L11.7,7z"/>
			</g>
			<g>
				<path fill="#F2EFE9" d="M27,33.7c-0.3,0-0.6-0.1-0.7-0.4l-0.5-0.8c-0.2-0.4-0.1-0.9,0.3-1.1c0.4-0.2,0.9-0.1,1.1,0.3l0.5,0.8
					c0.2,0.4,0.1,0.9-0.3,1.1C27.3,33.6,27.2,33.7,27,33.7L27,33.7z"/>
			</g>
			<g>
				<path fill="#F2EFE9" d="M5.4,27.9c-0.3,0-0.6-0.1-0.7-0.4C4.4,27,4.6,26.5,5,26.3l0.8-0.5c0.4-0.2,0.9-0.1,1.1,0.3
					C7.1,26.5,7,27,6.6,27.3l-0.8,0.5C5.6,27.8,5.5,27.9,5.4,27.9L5.4,27.9z"/>
			</g>
			<g>
				<path fill="#F2EFE9" d="M32,12.5c-0.3,0-0.6-0.1-0.7-0.4c-0.2-0.4-0.1-0.9,0.3-1.1l0.8-0.5c0.4-0.2,0.9-0.1,1.1,0.3
					c0.2,0.4,0.1,0.9-0.3,1.1l-0.8,0.5C32.3,12.4,32.2,12.5,32,12.5L32,12.5z"/>
			</g>
		</g>
	</g>
	<g>
		<path fill="#F2EFE9" d="M14.2,25.7c-0.4,0-0.8-0.2-1.2-0.5c-0.6-0.6-0.6-1.7,0-2.3l4.8-4.8c0.6-0.6,1.7-0.6,2.3,0
			c0.6,0.6,0.6,1.7,0,2.3l-4.8,4.8C15,25.5,14.6,25.7,14.2,25.7L14.2,25.7z"/>
	</g>
</g>
</svg>
