<?xml version="1.0" encoding="utf-8"?>
<!-- Generator: Adobe Illustrator 18.1.1, SVG Export Plug-In . SVG Version: 6.00 Build 0)  -->
<svg version="1.1" id="Layer_1" xmlns="http://www.w3.org/2000/svg" xmlns:xlink="http://www.w3.org/1999/xlink" x="0px" y="0px"
	 viewBox="0 0 70 50.7" enable-background="new 0 0 70 50.7" xml:space="preserve">
<g>
	<g>
		<path fill="#FFFFFF" d="M62.7,50.7H7.2c-4,0-7.2-3.2-7.2-7.2V7.2C0,3.2,3.2,0,7.2,0h55.5c4,0,7.2,3.2,7.2,7.2v36.3
			C70,47.5,66.7,50.7,62.7,50.7L62.7,50.7z M7.2,6.1c-0.6,0-1.1,0.5-1.1,1.1v36.3c0,0.6,0.5,1.1,1.1,1.1h55.5c0.6,0,1.1-0.5,1.1-1.1
			V7.2c0-0.6-0.5-1.1-1.1-1.1H7.2L7.2,6.1z"/>
	</g>
	<g>
		<path fill="#FFFFFF" d="M62.7,49.2H7.2c-2.3,0-4.5-1.5-5.3-3.7c-0.2-0.6-0.1-1.3,0.4-1.7L24,24.5c0.6-0.6,1.6-0.5,2.2,0.1
			c0.6,0.6,0.5,1.6-0.1,2.2L5.3,45.3c0.5,0.5,1.2,0.9,1.9,0.9h55.5c0.7,0,1.4-0.3,1.9-0.8l-21-18.7c-0.6-0.6-0.7-1.5-0.1-2.2
			c0.6-0.6,1.5-0.7,2.2-0.1l21.9,19.5c0.5,0.4,0.6,1.1,0.4,1.7C67.2,47.7,65.1,49.2,62.7,49.2L62.7,49.2z"/>
	</g>
	<g>
		<path fill="#FFFFFF" d="M35,35.5c-0.4,0-0.7-0.1-1-0.4L2.3,6.9C1.9,6.5,1.7,5.8,1.9,5.2c0.8-2.2,3-3.7,5.3-3.7h55.5
			c2.3,0,4.5,1.5,5.3,3.7c0.2,0.6,0.1,1.3-0.4,1.7L36,35.1C35.7,35.4,35.3,35.5,35,35.5L35,35.5z M5.3,5.4L35,31.9L64.7,5.4
			c-0.5-0.5-1.2-0.8-1.9-0.8H7.2C6.5,4.6,5.8,4.9,5.3,5.4L5.3,5.4z"/>
	</g>
</g>
</svg>
