<?xml version="1.0" encoding="utf-8"?>
<!-- Generator: Adobe Illustrator 18.1.1, SVG Export Plug-In . SVG Version: 6.00 Build 0)  -->
<svg version="1.1" id="Layer_1" xmlns="http://www.w3.org/2000/svg" xmlns:xlink="http://www.w3.org/1999/xlink" x="0px" y="0px"
	 viewBox="0 0 64.1 64.1" enable-background="new 0 0 64.1 64.1" xml:space="preserve">
<g>
	<g>
		<g>
			<g>
				<path fill="#FFFFFF" d="M18.8,53.6c-2.1,0-4.3-0.8-6-2.3c-1.8-1.6-2.9-3.8-3-6.2c-0.1-2.3,0.7-4.6,2.3-6.3
					c6.1-6.5,12.6-12.7,19.5-18.5c1.1-1,2.8-0.8,3.8,0.3c0.9,1.1,0.8,2.8-0.3,3.8C28.4,30,22,36.1,16,42.4c-0.6,0.7-0.9,1.5-0.9,2.4
					c0,0.9,0.5,1.8,1.2,2.5c1.5,1.3,3.7,1.2,5.1-0.2c6-6.2,12.6-12.2,19.5-17.8c1.1-0.9,2.8-0.7,3.7,0.4c0.9,1.1,0.7,2.8-0.4,3.7
					c-6.7,5.4-13.1,11.3-19,17.3C23.5,52.7,21.2,53.6,18.8,53.6L18.8,53.6z"/>
			</g>
			<g>
				<path fill="#FFFFFF" d="M47.1,33.9c-4.5,0-8.8-1.8-12-5c-3.2-3.2-5-7.5-5-12c0-4.5,1.8-8.8,5-12c3.2-3.2,7.5-5,12-5
					c4.5,0,8.8,1.8,12,5c3.2,3.2,5,7.5,5,12c0,4.5-1.8,8.8-5,12C55.9,32.1,51.7,33.9,47.1,33.9L47.1,33.9z M47.1,5.3
					c-3.1,0-6,1.2-8.2,3.4c-2.2,2.2-3.4,5.1-3.4,8.2c0,3.1,1.2,6,3.4,8.2c2.2,2.2,5.1,3.4,8.2,3.4c3.1,0,6-1.2,8.2-3.4
					c2.2-2.2,3.4-5.1,3.4-8.2c0-3.1-1.2-6-3.4-8.2C53.2,6.5,50.2,5.3,47.1,5.3L47.1,5.3z"/>
			</g>
			<g>
				<path fill="#FFFFFF" d="M52.9,26.7c-4.1,0-8-1.6-10.9-4.5C37.1,17.3,36,9.9,39.3,3.8c0.1-0.2,0.3-0.4,0.5-0.5
					c2.3-1.2,4.8-1.9,7.4-1.9c4.1,0,8,1.6,10.9,4.5c4.9,4.9,5.9,12.3,2.7,18.4c-0.1,0.2-0.3,0.4-0.5,0.5C58,26,55.5,26.7,52.9,26.7
					L52.9,26.7z M41.4,5.4c-2.5,5-1.6,10.9,2.4,14.9c2.4,2.4,5.6,3.7,9.1,3.7c2,0,4-0.5,5.8-1.4c2.5-5,1.6-10.9-2.4-14.9
					C53.9,5.4,50.7,4,47.2,4C45.2,4,43.2,4.5,41.4,5.4L41.4,5.4z"/>
			</g>
			<g>
				<path fill="#FFFFFF" d="M3.6,64.1c-0.8,0-1.7-0.1-2.7-0.4c-0.7-0.2-1.1-0.9-0.9-1.7c0.2-0.7,0.9-1.1,1.7-0.9
					c1.1,0.3,2.7,0.6,3.8-0.2C6.5,60.1,7,58.4,7,56c0-2.7,0.8-4.8,2.4-6.2c2.3-2.1,5.3-1.7,5.5-1.7c0.7,0.1,1.3,0.7,1.2,1.5
					c-0.1,0.7-0.7,1.2-1.5,1.2c-0.1,0-2.1-0.2-3.4,1.1c-1,0.9-1.5,2.3-1.5,4.2c0,3.3-0.9,5.7-2.6,7C6.1,63.7,5,64.1,3.6,64.1
					L3.6,64.1z"/>
			</g>
		</g>
	</g>
</g>
</svg>
