<?xml version="1.0" encoding="utf-8"?>
<!-- Generator: Adobe Illustrator 18.1.1, SVG Export Plug-In . SVG Version: 6.00 Build 0)  -->
<svg version="1.1" id="Layer_1" xmlns="http://www.w3.org/2000/svg" xmlns:xlink="http://www.w3.org/1999/xlink" x="0px" y="0px"
	 viewBox="0 0 89.2 78.1" enable-background="new 0 0 89.2 78.1" xml:space="preserve">
<g>
	<g>
		<path fill="#FFFFFF" d="M43.8,78.1v-2c-0.2-0.1-0.5-0.3-0.8-0.5c-2.9-2-9.8-6.8-14.3-10.3C11.8,52.2,2.9,42.5,1.3,35.6
			C0.5,33,0,30.3,0,27.5C-0.1,20,2.7,12.8,7.8,7.6c4.5-4.6,10.4-7.1,16.6-7.2l0.3,0c7.8,0,15,3.7,19.7,10.1C49,4,56.2,0.1,64.1,0
			l0.5,0C78,0,89,11.8,89.2,26.4c0,2.8-0.3,5.5-1.1,8.1c-1.4,6.9-10.3,17.1-26.5,30.4c-6.5,5.3-11.7,9.3-15.5,11.7L43.8,78.1z
			 M24.7,3.5l-0.3,0C19,3.5,13.8,5.7,9.9,9.8c-4.5,4.5-7,11-6.9,17.7c0,2.5,0.4,4.9,1.2,7.3l0,0.1c0.9,4.2,6.3,12.4,26.3,28
			c4.5,3.4,11.3,8.2,14.2,10.2c0.2,0.2,0.4,0.3,0.6,0.4c3.6-2.4,8.5-6.1,14.4-10.9c19.5-16.1,24.7-24.5,25.5-28.7l0-0.1
			c0.7-2.3,1-4.8,1-7.3C86,13.5,76.4,3,64.6,3l-0.4,0c-7.7,0.1-14.6,4.3-18.4,11.1l-1.3,2.2l-1.3-2.2C39.1,7.5,32.2,3.5,24.7,3.5z"
			/>
	</g>
</g>
</svg>
