<?xml version="1.0" encoding="utf-8"?>
<!-- Generator: Adobe Illustrator 18.1.1, SVG Export Plug-In . SVG Version: 6.00 Build 0)  -->
<svg version="1.1" id="Layer_1" xmlns="http://www.w3.org/2000/svg" xmlns:xlink="http://www.w3.org/1999/xlink" x="0px" y="0px"
	 viewBox="0 0 86.2 73.9" enable-background="new 0 0 86.2 73.9" xml:space="preserve">
<g>
	<path fill="#FFFFFF" d="M62.7,0c-8.4,0.1-15.8,4.9-19.7,11.9C38.8,5,31.3,0.4,22.9,0.5C10.1,0.5-0.2,12,0,26c0,2.7,0.5,5.3,1.2,7.7
		C3,41.6,16,53.2,28.1,62.6c5.8,4.5,15.7,11.2,15.7,11.3c4.1-2.6,9.7-6.9,15.4-11.6c11.8-9.7,24.4-21.6,26-29.6c0.7-2.4,1.1-5,1-7.7
		C86,10.9,75.5-0.3,62.7,0z"/>
</g>
</svg>
