<?xml version="1.0" encoding="utf-8"?>
<!-- Generator: Adobe Illustrator 18.1.1, SVG Export Plug-In . SVG Version: 6.00 Build 0)  -->
<svg version="1.1" id="Layer_1" xmlns="http://www.w3.org/2000/svg" xmlns:xlink="http://www.w3.org/1999/xlink" x="0px" y="0px"
	 viewBox="0 0 2208 2208" enable-background="new 0 0 2208 2208" xml:space="preserve">
<g>
	<g>
		<circle fill="#FF9E16" cx="1100.8" cy="1100.8" r="1100.8"/>
	</g>
	<g>
		<g enable-background="new    ">
			<path fill="#F3F3F3" d="M1029.6,1258.8c0.4-52.2,8.1-90.3,23.2-114.5s45.2-53.6,90.3-88.3c26.5-21.6,47.6-45,63.5-70.2
				s23.8-53.4,23.8-84.5c0-34.6-9-61.6-27.1-81.1s-43.9-29.3-77.4-29.3c-27.6,0-51,8.4-70.2,25.1c-19.2,16.8-29,41.3-29.4,73.6
				H867.5l-1.1-3.4c-1.1-71.6,22.5-126.3,70.7-164.4s111.2-57,188.7-57c83.5,0,149,21.2,196.5,63.4c47.5,42.3,71.3,99.8,71.3,172.4
				c0,47.3-13.9,91.1-41.7,131.3c-27.8,40.3-62.5,74-104.3,101.2c-22.8,17.5-37.7,35.1-44.7,52.8c-7.1,17.7-10.6,42-10.6,72.9
				H1029.6z M1193.4,1490.8H1029v-140h164.4V1490.8z"/>
		</g>
	</g>
</g>
</svg>
