<?xml version="1.0" encoding="utf-8"?>
<!-- Generator: Adobe Illustrator 18.1.1, SVG Export Plug-In . SVG Version: 6.00 Build 0)  -->
<svg version="1.1" id="Layer_1" xmlns="http://www.w3.org/2000/svg" xmlns:xlink="http://www.w3.org/1999/xlink" x="0px" y="0px"
	 viewBox="0 0 63.6 62" enable-background="new 0 0 63.6 62" xml:space="preserve">
<g>
	<g>
		<path fill="#FFFFFF" d="M24.8,62c-4.3,0-8.4-1.7-11.5-4.8l-8.6-8.6C1.7,45.5,0,41.5,0,37.1c0-4.3,1.7-8.4,4.8-11.5
			c3.1-3.1,7.2-4.8,11.5-4.8c3.6,0,7,1.2,9.8,3.3L48,2.3c3-3,8.3-3,11.3,0c2.4,2.4,2.9,5.9,1.6,8.9l0.8,0.8c1.2,1.2,1.9,2.8,1.9,4.5
			c0,1.7-0.7,3.3-1.9,4.5c-1.1,1.1-2.4,1.7-3.9,1.8c-0.2,1.4-0.8,2.7-1.9,3.8c-2.5,2.5-6.9,2.5-9.5,0l-0.1-0.1l-8.9,8.9
			c5.2,6.4,4.9,15.9-1.1,21.8C33.3,60.3,29.2,62,24.8,62L24.8,62z M16.3,25.9c-3,0-5.8,1.2-7.9,3.3c-2.1,2.1-3.3,4.9-3.3,7.9
			c0,3,1.2,5.8,3.3,7.9l8.6,8.6c2.1,2.1,4.9,3.3,7.9,3.3c3,0,5.8-1.2,7.9-3.3c4.4-4.4,4.4-11.4,0-15.8l-0.7-0.7c-1-1-1-2.6,0-3.6
			L44.5,21c1-1,2.7-1,3.6,0l2,2c0.6,0.6,1.7,0.6,2.3,0c0.6-0.6,0.6-1.6,0-2.3l-2-2c-0.5-0.5-0.7-1.1-0.7-1.8c0-0.7,0.3-1.3,0.7-1.8
			c1-1,2.7-1,3.6,0l2.3,2.3c0.3,0.3,0.7,0.4,0.9,0.4c0.2,0,0.6,0,0.9-0.4c0.3-0.3,0.4-0.7,0.4-0.9c0-0.2-0.1-0.6-0.4-0.9l-2.3-2.3
			c-1-1-1-2.5-0.1-3.5c1-1.1,1-2.9-0.1-3.9c-1.1-1.1-3-1.1-4.1,0L28,29.4c-1,1-2.6,1-3.6,0l-0.2-0.2C22.1,27.1,19.2,25.9,16.3,25.9
			L16.3,25.9z M24.8,51.7c-1.6,0-3.1-0.6-4.3-1.8L12,41.4c-2.4-2.4-2.4-6.2,0-8.6c2.3-2.3,6.3-2.3,8.6,0l8.6,8.6
			c2.4,2.4,2.4,6.2,0,8.6C28,51.1,26.5,51.7,24.8,51.7L24.8,51.7z M16.3,36.2c-0.1,0-0.4,0-0.7,0.3c-0.4,0.4-0.4,1,0,1.4l8.6,8.6
			c0.5,0.5,0.9,0.5,1.4,0c0.4-0.4,0.4-1,0-1.3l-8.6-8.6C16.7,36.2,16.4,36.2,16.3,36.2L16.3,36.2z"/>
	</g>
</g>
</svg>
