<?xml version="1.0" encoding="utf-8"?>
<!-- Generator: Adobe Illustrator 18.1.1, SVG Export Plug-In . SVG Version: 6.00 Build 0)  -->
<svg version="1.1" id="Layer_1" xmlns="http://www.w3.org/2000/svg" xmlns:xlink="http://www.w3.org/1999/xlink" x="0px" y="0px"
	 viewBox="0 0 2208 2208" enable-background="new 0 0 2208 2208" xml:space="preserve">
<g id="ic_x5F_mic_x0D_">
	<g>
		<path fill="#010101" d="M1103.6,1379.5c156.3,0,275.9-119.6,275.9-275.9V551.8c0-156.3-119.6-275.9-275.9-275.9
			S827.7,395.5,827.7,551.8v551.8C827.7,1259.9,947.2,1379.5,1103.6,1379.5z M1591,1103.6c0,275.9-229.9,469-487.4,469
			s-487.4-193.1-487.4-469H459.8c0,312.7,248.3,570.2,551.8,616.2v303.5h183.9v-303.5c303.5-46,551.8-303.5,551.8-616.2
			C1747.3,1103.6,1591,1103.6,1591,1103.6z"/>
	</g>
	<polygon fill="none" points="2207.2,2207.2 0,2207.2 0,0 2207.2,0 	"/>
</g>
</svg>
