<?xml version="1.0" encoding="utf-8"?>
<!-- Generator: Adobe Illustrator 18.1.1, SVG Export Plug-In . SVG Version: 6.00 Build 0)  -->
<svg version="1.1" id="Layer_1" xmlns="http://www.w3.org/2000/svg" xmlns:xlink="http://www.w3.org/1999/xlink" x="0px" y="0px"
	 viewBox="0 0 41.4 82.7" enable-background="new 0 0 41.4 82.7" xml:space="preserve">
<g id="ic_x5F_moreVert">
	<rect x="0" y="0" fill="none" width="41.4" height="82.7"/>
	<path fill="#FFFFFF" d="M20.7,27.6c3.8,0,6.9-3.1,6.9-6.9s-3.1-6.9-6.9-6.9s-6.9,3.1-6.9,6.9S16.9,27.6,20.7,27.6z M20.7,34.5
		c-3.8,0-6.9,3.1-6.9,6.9s3.1,6.9,6.9,6.9s6.9-3.1,6.9-6.9S24.5,34.5,20.7,34.5z M20.7,55.2c-3.8,0-6.9,3.1-6.9,6.9s3.1,6.9,6.9,6.9
		s6.9-3.1,6.9-6.9S24.5,55.2,20.7,55.2z"/>
</g>
</svg>
