<?xml version="1.0" encoding="utf-8"?>
<!-- Generator: Adobe Illustrator 18.1.1, SVG Export Plug-In . SVG Version: 6.00 Build 0)  -->
<svg version="1.1" id="Layer_1" xmlns="http://www.w3.org/2000/svg" xmlns:xlink="http://www.w3.org/1999/xlink" x="0px" y="0px"
	 viewBox="0 0 22.9 40.6" enable-background="new 0 0 22.9 40.6" xml:space="preserve">
<g>
	<g>
		<path fill="#F2EFE9" d="M4.4,40.6c-2.3,0-4-1.2-4.3-3.1c-0.6-3.1,2.6-6.4,5.9-7.9c1.5-0.7,2.9-1.1,4.2-1.1c2.3,0,4,1.2,4.3,3.1
			c0.6,3.1-2.6,6.4-5.9,7.9C7.2,40.2,5.7,40.6,4.4,40.6L4.4,40.6z M10.2,31.9c-0.8,0-1.8,0.3-2.8,0.7c-2.7,1.3-4.2,3.5-4.1,4.4
			c0.1,0.3,0.7,0.4,1.1,0.4c0.8,0,1.8-0.3,2.8-0.7c2.7-1.3,4.2-3.5,4.1-4.4C11.3,31.9,10.6,31.9,10.2,31.9L10.2,31.9z"/>
	</g>
	<g>
		<path fill="#F2EFE9" d="M13,33.6L13,33.6c-0.9,0-1.6-0.7-1.6-1.6l0-30.3C11.3,0.7,12.1,0,13,0l0,0c0.9,0,1.6,0.7,1.6,1.6l0,30.3
			C14.6,32.8,13.9,33.6,13,33.6L13,33.6z"/>
	</g>
	<g>
		<path fill="#F2EFE9" d="M21.3,14.1c-0.9,0-1.6-0.7-1.6-1.6V6l-7.3-2.9c-0.8-0.3-1.3-1.3-0.9-2.1c0.3-0.8,1.3-1.3,2.1-0.9l8.3,3.3
			c0.6,0.2,1,0.9,1,1.5v7.6C22.9,13.4,22.2,14.1,21.3,14.1L21.3,14.1z"/>
	</g>
</g>
</svg>
