<?xml version="1.0" encoding="utf-8"?>
<!-- Generator: Adobe Illustrator 18.1.1, SVG Export Plug-In . SVG Version: 6.00 Build 0)  -->
<svg version="1.1" id="Layer_1" xmlns="http://www.w3.org/2000/svg" xmlns:xlink="http://www.w3.org/1999/xlink" x="0px" y="0px"
	 viewBox="0 0 75.1 76" enable-background="new 0 0 75.1 76" xml:space="preserve">
<g>
	<polygon fill="#B7B7B7" points="44.8,19.8 42,29.4 32.4,32.5 40.7,38.2 40.7,48.2 48.6,42.1 58.2,45.2 54.8,35.7 60.7,27.6
		50.7,27.9 44.8,19.8 	"/>
	<polygon fill="#B7B7B7" points="63.7,4.3 59.7,8.3 54.1,7.3 56.7,12.4 54,17.3 59.6,16.5 63.5,20.6 64.4,15 69.5,12.5 64.5,10
		63.7,4.3 	"/>
	<polygon fill="#B7B7B7" points="71.7,33.3 69.3,35.7 66,35.1 67.5,38.1 65.9,41.1 69.2,40.5 71.5,43 72.1,39.7 75.1,38.2
		72.1,36.7 71.7,33.3 	"/>
	<polygon fill="#B7B7B7" points="35.2,11.4 33.6,15 29.9,15.7 32.7,18.2 32.2,22 35.5,20.1 39,21.8 38.2,18 40.9,15.2 37,14.8
		35.2,11.4 	"/>
	<g>
		<path fill="#B7B7B7" d="M17.6,13.5c-0.8,3.3-1.2,6.7-1.2,10.2c0,20.9,14.5,38.6,33.9,43.5c-3.8,1.5-7.8,2.3-12,2.3
			c-17.6,0-31.9-14.3-31.9-31.9C6.5,28.1,10.7,19.3,17.6,13.5 M31.1,0C13.4,3.4,0,18.9,0,37.6C0,58.8,17.2,76,38.3,76
			c12.2,0,23.1-5.7,30.1-14.6c-2.3,0.4-4.7,0.7-7.2,0.7c-21.2,0-38.3-17.2-38.3-38.3C22.9,14.7,26,6.5,31.1,0L31.1,0z"/>
	</g>
</g>
</svg>
