<?xml version="1.0" encoding="utf-8"?>
<!-- Generator: Adobe Illustrator 18.1.1, SVG Export Plug-In . SVG Version: 6.00 Build 0)  -->
<svg version="1.1" id="Layer_1" xmlns="http://www.w3.org/2000/svg" xmlns:xlink="http://www.w3.org/1999/xlink" x="0px" y="0px"
	 viewBox="0 0 55.2 56" enable-background="new 0 0 55.2 56" xml:space="preserve">
<g>
	<g>
		<g>
			<g>
				<g>
					<path fill="#FFFFFF" d="M42.6,21.2l-2.9,16.2c-0.9,0-1.8,0-2.7,0c-4.1-0.1-8.3-0.8-11.5-2.3C23,33.9,21,32,20.2,29.4
						c0.7-0.6,1.2-1.5,1.2-2.5c0-1.8-1.4-3.2-3.2-3.2S15,25.2,15,26.9c0,1.6,1.2,2.9,2.7,3.2c1,3.4,3.5,5.8,6.8,7.3
						c3.6,1.7,8,2.4,12.5,2.5c0.8,0,1.6,0,2.3,0l-0.6,4H3.9L0,21.2L42.6,21.2L42.6,21.2z M38.4,46.6L38,49H4.5l-0.3-2.4H38.4
						L38.4,46.6z M37.7,51.3c-0.7,2.3-0.3,4.8-3.4,4.8H8.2c-3,0-2.7-2.5-3.4-4.8H37.7L37.7,51.3z"/>
				</g>
				<g>
					<path fill="#FFFFFF" d="M45.2,5c4.2-3.9,4.9-7,8.2-3.6l0.1,0.1l0,0l0.1,0.2l0,0l0.1,0.2l0,0l0.1,0.2C57,5.7,53.8,6,49.6,9.9
						l0,0L45.2,5L45.2,5L45.2,5z M41.4,8.3c-3.2,2.2-5.4,2.5-8,3.5c-2.3,0.8-4.9,2.1-8.8,5.1c-0.8,0.6-1.6,1.3-2.5,2h20.6
						c0.8-1.7,1.5-3.5,3.3-5.6c0.5-0.5,1-1.1,1.6-1.7l0,0l-4.3-4.7l0,0C42.6,7.4,42,7.9,41.4,8.3L41.4,8.3z"/>
				</g>
			</g>
		</g>
	</g>
</g>
</svg>
