<?xml version="1.0" encoding="utf-8"?>
<!-- Generator: Adobe Illustrator 18.1.1, SVG Export Plug-In . SVG Version: 6.00 Build 0)  -->
<svg version="1.1" id="Layer_1" xmlns="http://www.w3.org/2000/svg" xmlns:xlink="http://www.w3.org/1999/xlink" x="0px" y="0px"
	 viewBox="0 0 37 38.9" enable-background="new 0 0 37 38.9" xml:space="preserve">
<g>
	<path fill="#F2EFE9" d="M18.5,38.9c-4.8,0-9.7-0.4-14.5-1.2c-1.8-0.3-3.4-2.1-3.6-4c-0.1-1.3-0.3-2.7-0.4-4c-0.2-1.8,1-4,2.6-4.9
		c3.1-1.5,6.4-2.5,9.8-3.1l-0.1-0.4c-0.9-0.8-1.5-1.8-1.6-2.7c0-0.3-0.1-0.6-0.1-1c-0.8-0.3-1.3-1-1.4-1.9l-0.4-3.8
		c-0.1-0.6,0.1-1.2,0.5-1.7c0.1-0.1,0.3-0.3,0.4-0.4L9.6,8.8c-0.1-1.3-0.4-4.3,1.9-6.4C13.1,0.9,15.7,0,18.5,0c2.8,0,5.3,0.9,7,2.5
		c2.3,2,2,5,1.9,6.3l0,0.3c0,0.3-0.1,0.6-0.1,0.8c0.1,0.1,0.3,0.2,0.4,0.4c0.4,0.5,0.6,1.1,0.5,1.7l-0.4,3.8
		c-0.1,0.9-0.6,1.6-1.4,1.9l-0.1,1c-0.1,0.9-0.7,1.9-1.6,2.7l-0.1,0.4c3.4,0.6,6.7,1.6,9.7,3c1.7,0.9,2.9,3,2.7,4.9l-0.4,4
		c-0.2,1.9-1.8,3.6-3.6,4C28.2,38.6,23.3,38.9,18.5,38.9L18.5,38.9z M12.4,14.5c0.1,0,0.2,0,0.2,0.1c0.6,0.2,1,0.7,1.1,1.4
		c0.1,0.8,0.2,1.7,0.3,2.5c0,0.1,0.3,0.5,0.7,0.8c0.4,0.3,0.7,0.7,0.7,1.2l0.4,2.7c0.1,0.4-0.1,0.9-0.3,1.2
		c-0.3,0.4-0.7,0.6-1.1,0.6c-3.6,0.4-7.1,1.4-10.4,3c-0.5,0.3-0.9,1.1-0.8,1.6c0.1,1.3,0.3,2.7,0.4,4c0.1,0.5,0.6,1,0.9,1.1
		c9.1,1.5,18.6,1.5,27.8,0c0.3-0.1,0.8-0.6,0.9-1.1l0.4-4c0-0.5-0.4-1.4-0.9-1.6c-3.2-1.5-6.7-2.5-10.3-2.9
		c-0.4-0.1-0.8-0.3-1.1-0.6c-0.3-0.3-0.4-0.8-0.3-1.2l0.4-2.7c0.1-0.5,0.3-0.9,0.7-1.1c0.5-0.3,0.7-0.7,0.7-0.8l0.3-2.5
		c0.1-0.6,0.5-1.2,1.1-1.4c0.1,0,0.2,0,0.2-0.1l0.2-1.8c-0.1,0-0.2-0.1-0.3-0.1c-0.5-0.3-0.8-0.9-0.7-1.5l0-0.2
		c0.1-0.7,0.2-1.3,0.2-2l0-0.3c0.1-1.3,0.2-2.7-0.8-3.6c-1.1-1-2.8-1.6-4.7-1.6c-1.9,0-3.7,0.6-4.7,1.6c-1.1,1-1,2.4-0.9,3.7
		l0.3,2.5c0.1,0.6-0.2,1.2-0.7,1.5c-0.1,0.1-0.2,0.1-0.2,0.1L12.4,14.5L12.4,14.5z"/>
</g>
</svg>
