<?xml version="1.0" encoding="utf-8"?>
<!-- Generator: Adobe Illustrator 18.1.1, SVG Export Plug-In . SVG Version: 6.00 Build 0)  -->
<svg version="1.1" id="Layer_1" xmlns="http://www.w3.org/2000/svg" xmlns:xlink="http://www.w3.org/1999/xlink" x="0px" y="0px"
	 viewBox="0 0 52.3 55.5" enable-background="new 0 0 52.3 55.5" xml:space="preserve">
<g>
	<g>
		<path fill="#FFFFFF" d="M49.6,38.4c-5.3-2.5-11-4.1-16.9-4.8c0.2-1.4,0.4-2.8,0.6-4.2c1.3-0.8,2.2-2,2.3-3.1
			c0.2-1.3,0.3-2.6,0.5-3.9c0.2,0.2,0.4,0.3,0.7,0.3c0.6,0.1,1.2-0.4,1.2-1l0.6-5.9c0.1-0.6-0.4-1.2-1-1.2c-0.2,0-0.5,0-0.7,0.1
			c0.1-1.1,0.3-2.3,0.4-3.4c0.1-1.5,0.9-5.7-2.1-8.3c-4.3-4.2-13.8-4.2-18.1,0c-3,2.7-2.2,6.8-2.1,8.3c0.1,1.1,0.3,2.3,0.4,3.4
			c-0.2-0.1-0.4-0.2-0.7-0.1c-0.6,0.1-1.1,0.6-1,1.2l0.6,5.9c0.1,0.6,0.6,1.1,1.2,1c0.3,0,0.5-0.2,0.7-0.3c0.1,1.3,0.3,2.6,0.4,3.9
			c0.1,1,1,2.2,2.3,3.1c0.2,1.4,0.4,2.8,0.6,4.2c-5.8,0.7-11.5,2.3-16.9,4.8C1,39.3-0.2,41.7,0,43.5c0.2,2.1,0.4,4.2,0.6,6.3
			c0.2,1.8,1.7,3.6,3.5,3.9c14.6,2.3,29.5,2.3,44.1,0c1.7-0.3,3.3-2.1,3.5-3.9c0.2-2.1,0.4-4.2,0.6-6.3
			C52.5,41.7,51.3,39.3,49.6,38.4z"/>
	</g>
</g>
</svg>
