<?xml version="1.0" encoding="utf-8"?>
<!-- Generator: Adobe Illustrator 18.1.1, SVG Export Plug-In . SVG Version: 6.00 Build 0)  -->
<svg version="1.1" id="Layer_1" xmlns="http://www.w3.org/2000/svg" xmlns:xlink="http://www.w3.org/1999/xlink" x="0px" y="0px"
	 viewBox="0 0 2208 2208" enable-background="new 0 0 2208 2208" xml:space="preserve">
<g id="radio_x5F_on_x5F_light">
	<path fill="#FF9E16" d="M1103.6,643.8c-257.5,0-459.8,202.3-459.8,459.8s202.3,459.8,459.8,459.8s459.8-202.3,459.8-459.8
		S1361.1,643.8,1103.6,643.8z M1103.6,183.9c-505.8,0-919.7,413.9-919.7,919.7s413.9,919.7,919.7,919.7s919.7-413.9,919.7-919.7
		S1609.4,183.9,1103.6,183.9z M1103.6,1839.3c-404.7,0-735.7-331.1-735.7-735.7S699,367.9,1103.6,367.9s735.7,331.1,735.7,735.7
		S1508.3,1839.3,1103.6,1839.3z"/>
	<g>
		<polygon fill="none" points="2207.2,2207.2 0,2207.2 0,0 2207.2,0 		"/>
	</g>
	<polygon display="none" fill="none" points="0,0 2207.2,0 2207.2,2207.2 0,2207.2 	"/>
</g>
</svg>
