<?xml version="1.0" encoding="utf-8"?>
<!-- Generator: Adobe Illustrator 18.1.1, SVG Export Plug-In . SVG Version: 6.00 Build 0)  -->
<svg version="1.1" id="Layer_1" xmlns="http://www.w3.org/2000/svg" xmlns:xlink="http://www.w3.org/1999/xlink" x="0px" y="0px"
	 viewBox="0 0 40.9 40.9" enable-background="new 0 0 40.9 40.9" xml:space="preserve">
<g>
	<path fill="#FFFFFF" d="M25,35.4h10.5v-1.7H25V35.4z M15.8,33.7H5.3v1.7h10.5V33.7z M15.8,6.4H5.3V19h10.5V6.4z M12.5,15.8v0.9H8.7
		v-0.9h1.2v-3.5l-3.4-3h8.2l-3.4,3v3.5H12.5z M15.8,28.2H5.3v1.7h10.5V28.2z M15.8,22.7H5.3v1.7h10.5V22.7z M25,8.1h10.5V6.4H25V8.1
		z M36.7,0H4.2C1.9,0,0,1.9,0,4.2v32.6c0,2.3,1.9,4.2,4.2,4.2h32.6c2.3,0,4.2-1.9,4.2-4.2V4.2C40.9,1.9,39,0,36.7,0z M19.5,7.6h-0.8
		c-0.6,0-1.1,0.5-1.1,1.1s0.5,1.1,1.1,1.1h0.8v5.8h-0.8c-0.6,0-1.1,0.5-1.1,1.1c0,0.6,0.5,1.1,1.1,1.1h0.8v5.8h-0.8
		c-0.6,0-1.1,0.5-1.1,1.1c0,0.6,0.5,1.1,1.1,1.1h0.8v5.8h-0.8c-0.6,0-1.1,0.5-1.1,1.1c0,0.6,0.5,1.1,1.1,1.1h0.8v4.8H4.2
		c-0.8,0-1.4-0.6-1.4-1.4V4.2c0-0.8,0.6-1.4,1.4-1.4h15.3V7.6z M38.1,36.7c0,0.8-0.6,1.4-1.4,1.4H21.4v-4.8h0.8
		c0.6,0,1.1-0.5,1.1-1.1c0-0.6-0.5-1.1-1.1-1.1h-0.8v-5.8h0.8c0.6,0,1.1-0.5,1.1-1.1c0-0.6-0.5-1.1-1.1-1.1h-0.8v-5.8h0.8
		c0.6,0,1.1-0.5,1.1-1.1c0-0.6-0.5-1.1-1.1-1.1h-0.8V9.7h0.8c0.6,0,1.1-0.5,1.1-1.1s-0.5-1.1-1.1-1.1h-0.8V2.8h15.3
		c0.8,0,1.4,0.6,1.4,1.4V36.7z M25,13.5h10.5v-1.7H25V13.5z M25,24.5h10.5v-1.7H25V24.5z M25,29.9h10.5v-1.7H25V29.9z M25,19h10.5
		v-1.7H25V19z"/>
</g>
</svg>
