<?xml version="1.0" encoding="utf-8"?>
<!-- Generator: Adobe Illustrator 18.1.1, SVG Export Plug-In . SVG Version: 6.00 Build 0)  -->
<svg version="1.1" id="Layer_1" xmlns="http://www.w3.org/2000/svg" xmlns:xlink="http://www.w3.org/1999/xlink" x="0px" y="0px"
	 viewBox="0 0 2208 2208" enable-background="new 0 0 2208 2208" xml:space="preserve">
<g id="ic_x5F_search_x0D_">
	<g>
		<g>
			<path d="M1425.4,1287.5h-73.6l-27.6-27.6c92-101.2,147.1-239.1,147.1-386.3c0-331.1-266.7-597.8-597.8-597.8
				S275.8,542.6,275.8,873.7s266.7,597.8,597.8,597.8c147.1,0,285.1-55.2,386.3-147.1l27.6,27.6v73.6l459.8,459.8l137.9-137.9
				L1425.4,1287.5z M873.6,1287.5c-229.9,0-413.8-183.9-413.8-413.8s183.9-413.8,413.8-413.8s413.8,183.9,413.8,413.8
				S1103.5,1287.5,873.6,1287.5z"/>
		</g>
	</g>
	<polygon fill="none" points="2207.1,2207.2 -0.1,2207.2 -0.1,0 2207.1,0 	"/>
</g>
</svg>
