<?xml version="1.0" encoding="utf-8"?>
<!-- Generator: Adobe Illustrator 18.1.1, SVG Export Plug-In . SVG Version: 6.00 Build 0)  -->
<svg version="1.1" id="Layer_1" xmlns="http://www.w3.org/2000/svg" xmlns:xlink="http://www.w3.org/1999/xlink" x="0px" y="0px"
	 viewBox="0 0 46 40.5" enable-background="new 0 0 46 40.5" xml:space="preserve">
<g>
	<g>
		<g>
			<path fill="#FFFFFF" d="M22.2,37c-0.6,0-1.2-0.3-1.6-0.8L9.8,21.5c-0.5-0.7-0.5-1.7,0-2.4L20.5,4.4c0.7-0.9,1.9-1.1,2.8-0.4
				c0.9,0.7,1.1,1.9,0.4,2.8L14,20.3l9.8,13.5c0.7,0.9,0.5,2.2-0.4,2.8C23,36.9,22.6,37,22.2,37L22.2,37z"/>
		</g>
		<g>
			<path fill="#FFFFFF" d="M9.5,20.3c0-1.1,0.9-2,2-2H44c1.1,0,2,0.9,2,2c0,1.1-0.9,2-2,2l0,0"/>
		</g>
	</g>
	<g>
		<path fill="#FFFFFF" d="M2,40.5c-1.1,0-2-0.9-2-2V2c0-1.1,0.9-2,2-2c1.1,0,2,0.9,2,2v36.5C4,39.6,3.1,40.5,2,40.5L2,40.5z"/>
	</g>
</g>
</svg>
