<?xml version="1.0" encoding="utf-8"?>
<!-- Generator: Adobe Illustrator 18.1.1, SVG Export Plug-In . SVG Version: 6.00 Build 0)  -->
<svg version="1.1" id="Layer_1" xmlns="http://www.w3.org/2000/svg" xmlns:xlink="http://www.w3.org/1999/xlink" x="0px" y="0px"
	 viewBox="0 0 2208 2208" enable-background="new 0 0 2208 2208" xml:space="preserve">
<g id="ic_x5F_share">
	<g>
		<polygon fill="none" points="0,0 0,2208.2 2208.2,2208.2 2208.2,0 		"/>
		<path fill="#FFFFFF" d="M1656.1,1481.3c-73.6,0-128.8,27.6-184,73.6l-653.3-386.4c9.2-18.4,9.2-46,9.2-64.4c0-18.4,0-46-9.2-64.4
			l653.3-377.2c46,46,110.4,73.6,184,73.6c156.4,0,276-119.6,276-276s-119.6-276-276-276s-276,119.6-276,276c0,18.4,0,46,9.2,64.4
			L736.1,901.7c-46-46-110.4-73.6-184-73.6c-156.4,0-276,119.6-276,276s119.6,276,276,276c73.6,0,138-27.6,184-73.6l653.3,386.4
			c0,18.4-9.2,36.8-9.2,64.4c0,147.2,119.6,266.8,266.8,266.8s266.8-119.6,266.8-266.8S1803.4,1481.3,1656.1,1481.3z"/>
	</g>
	<polygon display="none" fill="none" points="0,0 2208.2,0 2208.2,2208.2 0,2208.2 	"/>
</g>
</svg>
