<?xml version="1.0" encoding="utf-8"?>
<!-- Generator: Adobe Illustrator 18.1.1, SVG Export Plug-In . SVG Version: 6.00 Build 0)  -->
<svg version="1.1" id="Layer_1" xmlns="http://www.w3.org/2000/svg" xmlns:xlink="http://www.w3.org/1999/xlink" x="0px" y="0px"
	 viewBox="0 0 64.4 70.8" enable-background="new 0 0 64.4 70.8" xml:space="preserve">
<g>
	<g>
		<g>
			<g>
				<path fill="#B7B7B8" d="M61.6,18h-7v-2.7h7V18L61.6,18z M61.6,21.7h-7V19h7V21.7L61.6,21.7z M61.6,25.3h-7v-2.7h7V25.3
					L61.6,25.3z M61.6,28.9h-7v-2.7h7V28.9L61.6,28.9z M61.6,32.6h-7v-2.7h7V32.6L61.6,32.6z M61.6,40.8h-7v-2.7h7V40.8L61.6,40.8z
					 M61.6,44.4h-7v-2.7h7V44.4L61.6,44.4z M61.6,48.1h-7v-2.7h7V48.1L61.6,48.1z M61.6,51.7h-7V49h7V51.7L61.6,51.7z M61.6,55.3h-7
					v-2.7h7V55.3L61.6,55.3z M52.5,18h-7v-2.7h7V18L52.5,18z M52.5,21.7h-7V19h7V21.7L52.5,21.7z M52.5,25.3h-7v-2.7h7V25.3
					L52.5,25.3z M52.5,28.9h-7v-2.7h7V28.9L52.5,28.9z M52.5,32.6h-7v-2.7h7V32.6L52.5,32.6z M52.5,40.8h-7v-2.7h7V40.8L52.5,40.8z
					 M52.5,44.4h-7v-2.7h7V44.4L52.5,44.4z M52.5,48.1h-7v-2.7h7V48.1L52.5,48.1z M52.5,51.7h-7V49h7V51.7L52.5,51.7z M52.5,55.3h-7
					v-2.7h7V55.3L52.5,55.3z M47.6,68.7h-5.3h-1.1v-9.2h1.1h5.3V68.7L47.6,68.7z M36.3,52.6h6h0.9v2.7h-0.9h-6V52.6L36.3,52.6z
					 M34.2,25.3h-7V24v-1.4h7V24V25.3L34.2,25.3z M34.2,28.9h-7v-2.7h7V28.9L34.2,28.9z M34.2,32.6h-7v-2.7h7V32.6L34.2,32.6z
					 M34.2,40.8h-7v-2.7h7V40.8L34.2,40.8z M34.2,44.4h-7v-2.7h7V44.4L34.2,44.4z M34.2,48.1h-7v-2.7h7V48.1L34.2,48.1z M34.2,51.7
					h-7V49h7V51.7L34.2,51.7z M34.2,55.3h-7v-2.7h7V55.3L34.2,55.3z M27.3,19h7v2.7h-7V19L27.3,19z M27.3,15.3h7V18h-7V15.3
					L27.3,15.3z M42.3,28.9h-6v-2.7h6h0.9v2.7H42.3L42.3,28.9z M42.3,32.6h-6v-2.7h6h0.9v2.7H42.3L42.3,32.6z M42.3,40.8h-6v-2.7h6
					h0.9v2.7H42.3L42.3,40.8z M42.3,44.4h-6v-2.7h6h0.9v2.7H42.3L42.3,44.4z M42.3,48.1h-6v-2.7h6h0.9v2.7H42.3L42.3,48.1z M36.3,49
					h6h0.9v2.7h-0.9h-6V49L36.3,49z M36.3,22.6h7v2.7h-0.9h-6V24V22.6L36.3,22.6z M36.3,19h7v2.7h-7V19L36.3,19z M36.3,15.3h7V18h-7
					V15.3L36.3,15.3z M18.8,33.2h-7v-6.3h7V33.2L18.8,33.2z M18.8,41.7h-7v-6.3h7V41.7L18.8,41.7z M18.8,50.2h-7v-6.3h7V50.2
					L18.8,50.2z M18.8,58.7h-7v-6.3h7V58.7L18.8,58.7z M18.8,67.2h-7v-6.3h7V67.2L18.8,67.2z M9.8,33.2h-7v-6.3h7V33.2L9.8,33.2z
					 M9.8,41.7h-7v-6.3h7V41.7L9.8,41.7z M9.8,50.2h-7v-6.3h7V50.2L9.8,50.2z M9.8,58.7h-7v-6.3h7V58.7L9.8,58.7z M9.8,67.2h-7v-6.3
					h7V67.2L9.8,67.2z M24.5,5.3V24H0v46.9h24.5h17.8h22V5.3H24.5L24.5,5.3z"/>
				<polygon fill="#B7B7B8" points="58.1,3.7 58.1,0 53.5,0 53.5,3.7 58.1,3.7 				"/>
			</g>
		</g>
	</g>
</g>
</svg>
